<?xml version="1.0" standalone="no"?>
<!DOCTYPE svg PUBLIC "-//W3C//DTD SVG 20010904//EN"
 "http://www.w3.org/TR/2001/REC-SVG-20010904/DTD/svg10.dtd">
<svg version="1.0" xmlns="http://www.w3.org/2000/svg"
 width="512.000000pt" height="512.000000pt" viewBox="0 0 512.000000 512.000000"
 preserveAspectRatio="xMidYMid meet">
<metadata>
Created by potrace 1.14, written by Peter Selinger 2001-2017
</metadata>
<g transform="translate(0.000000,512.000000) scale(0.100000,-0.100000)"
fill="#000000" stroke="none">
<path d="M1635 4633 c3 -7 3 -13 -2 -14 -4 0 -16 -2 -25 -4 -10 -2 -18 1 -18
6 0 5 -12 4 -27 -2 -19 -7 -28 -6 -33 2 -6 8 -9 8 -14 0 -4 -6 -12 -9 -17 -5
-5 3 -16 1 -24 -6 -10 -8 -15 -8 -21 1 -5 8 -3 9 6 4 9 -5 11 -4 6 4 -6 9 -11
9 -22 0 -8 -6 -25 -9 -40 -6 -20 3 -24 1 -20 -12 5 -14 5 -14 -7 1 -9 12 -18
14 -30 7 -9 -6 -17 -7 -17 -3 0 3 -8 0 -17 -7 -11 -10 -14 -10 -9 -2 5 10 1
11 -18 3 -16 -6 -27 -6 -31 0 -4 6 -12 10 -18 10 -7 0 -6 -4 3 -10 12 -8 8
-10 -15 -11 -49 -3 -53 -4 -61 -12 -4 -4 -16 -7 -26 -7 -11 0 -17 -4 -13 -9 3
-5 0 -13 -6 -17 -8 -4 -9 -3 -5 4 10 17 -13 15 -48 -3 -15 -8 -31 -13 -35 -10
-4 2 -13 -5 -21 -15 -8 -10 -18 -16 -23 -13 -6 3 -16 -2 -23 -12 -8 -10 -20
-15 -29 -11 -11 4 -14 2 -9 -6 5 -8 2 -9 -10 -5 -11 4 -15 3 -11 -4 4 -6 -3
-13 -15 -16 -13 -3 -19 -11 -16 -20 3 -8 2 -12 -3 -8 -14 8 -42 -6 -34 -18 4
-6 0 -8 -10 -4 -11 4 -17 1 -17 -8 0 -8 -7 -15 -15 -15 -8 0 -14 -3 -12 -7 1
-5 -3 -9 -8 -11 -6 -2 -16 -14 -23 -28 -7 -13 -17 -22 -22 -19 -6 4 -7 -1 -3
-11 5 -13 3 -16 -10 -11 -9 3 -16 2 -14 -3 1 -5 -7 -16 -18 -25 -11 -9 -15
-14 -8 -11 6 4 15 2 18 -4 4 -6 3 -10 -2 -9 -17 3 -33 -1 -32 -8 1 -5 1 -17 0
-28 -1 -17 -3 -18 -11 -5 -8 13 -10 12 -10 -3 0 -12 -4 -16 -12 -11 -9 5 -9 2
1 -9 12 -15 11 -17 -5 -17 -16 0 -17 -2 -4 -10 13 -8 13 -10 -2 -10 -11 0 -15
-5 -12 -15 4 -8 1 -15 -7 -15 -7 0 -10 -3 -6 -6 3 -4 -1 -13 -9 -22 -11 -11
-12 -17 -4 -22 8 -5 7 -9 -5 -14 -9 -3 -14 -10 -10 -15 3 -5 1 -12 -5 -16 -6
-4 -8 -11 -5 -16 4 -5 2 -9 -3 -9 -6 0 -8 -10 -4 -22 3 -12 1 -19 -5 -15 -5 3
-10 0 -10 -8 0 -8 4 -12 9 -9 4 3 5 -2 2 -10 -3 -9 -11 -13 -18 -9 -6 4 -5 -1
3 -10 11 -13 11 -17 1 -17 -8 0 -10 -3 -7 -7 4 -3 1 -13 -6 -21 -10 -13 -9
-15 6 -9 21 8 22 3 0 -18 -14 -14 -14 -18 -2 -26 11 -7 11 -9 1 -9 -7 0 -10
-4 -7 -10 3 -5 1 -10 -5 -10 -8 0 -8 -6 0 -20 8 -15 8 -20 -2 -20 -9 0 -9 -3
2 -10 12 -8 12 -10 1 -10 -8 0 -11 -3 -8 -6 3 -4 2 -15 -3 -25 -7 -12 -7 -20
0 -24 6 -4 7 -13 1 -24 -5 -9 -6 -22 -2 -29 8 -13 7 -85 -2 -99 -4 -6 -3 -13
0 -17 11 -11 12 -37 1 -30 -7 4 -7 -2 -2 -17 9 -29 9 -39 -1 -61 -4 -12 -3
-18 5 -18 10 0 10 -3 0 -15 -8 -10 -9 -15 -2 -15 6 0 9 -7 6 -15 -4 -8 -10
-12 -15 -10 -4 3 -2 -9 5 -26 15 -35 10 -72 -8 -63 -6 3 -2 -2 8 -10 13 -11
15 -16 6 -16 -7 0 -10 -3 -7 -7 4 -3 2 -12 -5 -20 -9 -11 -7 -12 7 -6 15 5 17
3 12 -11 -4 -10 -7 -20 -7 -22 0 -3 -4 -2 -10 1 -6 3 -7 -1 -4 -9 3 -9 10 -16
15 -16 6 0 5 -9 -1 -20 -6 -11 -8 -20 -4 -20 3 0 1 -7 -6 -15 -11 -13 -10 -14
2 -10 11 4 14 0 12 -17 -1 -13 -3 -29 -3 -36 -1 -7 -7 -10 -14 -7 -6 4 -3 -1
7 -9 15 -12 16 -16 5 -16 -11 0 -12 -2 0 -9 9 -6 10 -11 2 -15 -7 -5 -8 -13
-2 -25 6 -10 6 -23 1 -31 -5 -9 -4 -20 3 -29 9 -12 9 -13 0 -7 -7 4 -13 3 -13
-3 0 -5 6 -11 12 -14 10 -3 10 -7 0 -19 -9 -12 -10 -18 -2 -23 8 -5 6 -15 -5
-32 -10 -14 -12 -23 -7 -19 18 11 23 -12 6 -28 -13 -14 -13 -16 0 -16 15 0 17
-34 2 -58 -4 -7 -2 -12 5 -12 8 0 8 -4 -1 -15 -7 -8 -9 -15 -4 -15 5 0 2 -5
-6 -10 -13 -8 -13 -10 1 -10 10 0 15 -8 13 -22 -1 -13 -3 -29 -3 -36 -1 -7 -7
-10 -13 -7 -7 4 -4 -1 6 -9 15 -12 16 -16 5 -16 -11 0 -12 -2 0 -9 9 -6 10
-11 2 -15 -7 -5 -8 -13 -2 -25 7 -13 5 -25 -6 -41 -9 -13 -11 -20 -5 -16 6 3
13 2 17 -4 3 -5 1 -10 -4 -10 -6 0 -11 -5 -11 -11 0 -5 4 -8 9 -4 5 3 13 0 17
-6 4 -7 3 -9 -3 -6 -6 4 -13 0 -17 -8 -3 -8 -1 -17 5 -21 6 -4 4 -15 -6 -30
-9 -15 -11 -23 -4 -22 6 2 14 -3 17 -11 2 -8 1 -11 -4 -8 -5 3 -8 -11 -8 -31
1 -21 -5 -45 -14 -55 -9 -10 -12 -18 -7 -17 20 4 35 0 35 -11 0 -5 -4 -8 -9
-5 -4 3 -6 -7 -4 -22 6 -41 6 -46 -2 -64 -4 -12 -3 -18 5 -18 9 0 9 -4 -1 -17
-12 -15 -12 -16 1 -8 12 7 13 6 3 -6 -9 -11 -9 -19 -2 -26 8 -8 7 -18 -2 -34
-9 -18 -9 -24 0 -27 9 -3 9 -8 -1 -20 -11 -13 -11 -14 2 -7 12 7 13 6 3 -6 -7
-9 -8 -20 -3 -29 5 -8 4 -22 -2 -34 -8 -15 -8 -21 1 -24 9 -3 9 -7 0 -18 -8
-10 -8 -14 -1 -14 13 0 4 -31 -12 -42 -7 -5 -4 -8 7 -8 15 0 16 -3 6 -21 -8
-16 -8 -20 1 -14 9 6 9 3 1 -13 -8 -14 -8 -23 -1 -27 8 -5 7 -11 -1 -21 -9
-11 -9 -14 1 -14 10 0 10 -3 0 -15 -10 -12 -10 -15 0 -15 10 0 10 -3 0 -15
-10 -12 -10 -15 0 -15 10 0 10 -3 0 -15 -10 -12 -10 -15 0 -15 8 0 9 -4 4 -12
-13 -18 -8 -51 13 -90 2 -4 -4 -5 -13 -1 -15 6 -15 2 4 -24 15 -21 19 -34 12
-38 -8 -5 -7 -12 2 -23 11 -13 10 -15 -4 -9 -12 4 -15 2 -11 -9 3 -7 9 -14 14
-14 5 0 9 -5 9 -11 0 -5 -4 -8 -9 -4 -5 3 -3 -8 6 -25 8 -17 12 -37 9 -45 -2
-7 0 -16 7 -19 9 -3 8 -8 -3 -15 -13 -9 -8 -15 11 -13 4 1 6 -6 5 -16 0 -9 4
-16 9 -15 6 1 11 -7 11 -17 0 -10 -4 -16 -8 -14 -16 10 -7 -6 14 -27 21 -20
21 -21 3 -15 -18 5 -18 4 -4 -6 9 -7 15 -21 13 -30 -1 -11 3 -15 14 -11 10 4
13 2 8 -5 -4 -7 -2 -12 6 -12 11 0 10 -2 0 -9 -11 -7 -10 -9 3 -15 9 -3 13
-11 9 -18 -5 -7 -2 -9 8 -5 12 4 14 1 10 -15 -3 -13 -1 -19 5 -15 12 7 26 -20
18 -33 -3 -4 3 -14 13 -21 16 -13 16 -13 2 6 -14 18 -13 19 1 8 9 -7 19 -10
23 -6 4 4 4 0 0 -10 -4 -12 1 -24 15 -36 11 -10 17 -22 13 -26 -4 -5 2 -5 12
-1 17 6 17 5 5 -10 -13 -16 -12 -16 10 -5 13 7 21 9 17 3 -5 -9 47 -72 60 -72
4 0 13 -8 21 -17 10 -12 12 -13 8 -3 -4 10 -2 9 8 -3 8 -9 22 -17 31 -17 9 0
16 -8 16 -17 0 -9 3 -14 6 -10 4 3 15 -4 26 -16 11 -12 17 -16 13 -10 -3 7 -1
13 4 13 6 0 11 -4 11 -10 0 -5 14 -10 31 -10 17 0 28 -4 24 -10 -6 -9 22 -15
53 -11 6 1 12 -3 12 -9 0 -6 -4 -8 -10 -5 -5 3 -10 1 -10 -4 0 -13 2 -13 32
-2 20 7 24 6 25 -10 1 -12 -3 -17 -9 -13 -7 4 -8 2 -4 -5 10 -15 26 -4 26 17
0 13 2 14 8 4 5 -7 16 -10 24 -7 10 4 25 -3 38 -17 14 -15 19 -17 15 -6 -7 17
17 20 32 3 4 -4 2 -5 -6 0 -9 5 -12 4 -7 -3 5 -9 16 -7 39 5 31 15 31 15 17
-2 -14 -17 -14 -18 9 -6 19 11 22 11 16 0 -6 -9 -3 -11 8 -6 9 3 18 1 21 -6 4
-7 4 -2 2 11 -2 12 0 20 5 16 5 -3 9 -13 9 -22 0 -15 2 -15 10 -2 8 13 10 12
11 -5 1 -11 1 -24 0 -28 -1 -5 3 -6 8 -3 5 3 7 16 5 29 -2 12 -1 16 2 9 5 -10
9 -10 21 0 14 11 15 10 8 -11 -6 -21 -5 -22 8 -10 8 8 13 16 12 19 -2 3 5 7
16 7 17 2 18 -1 9 -12 -11 -13 -6 -13 35 -1 40 12 46 12 41 1 -3 -8 0 -17 7
-21 7 -4 9 -4 5 0 -4 5 -2 14 5 21 9 10 14 9 25 -4 7 -9 11 -11 8 -5 -3 7 1
14 8 17 8 3 16 1 18 -5 3 -8 10 -8 25 1 17 8 24 8 29 -1 5 -7 3 -8 -6 -3 -9 5
-11 4 -6 -3 5 -9 15 -8 38 4 16 9 27 11 24 6 -3 -6 1 -13 10 -16 8 -3 12 -11
8 -17 -4 -8 -3 -9 5 -5 8 6 9 12 2 20 -6 7 -8 16 -4 19 3 4 12 -1 20 -11 14
-16 14 -16 8 2 -6 19 -5 19 14 2 11 -10 18 -23 14 -29 -3 -6 -1 -7 6 -3 8 6 9
12 2 20 -6 7 -8 16 -4 19 3 4 12 -1 20 -11 14 -16 14 -16 8 3 -5 15 -3 17 6 8
6 -6 18 -9 26 -6 13 5 13 2 4 -18 -10 -21 -9 -20 10 4 16 21 24 25 34 17 10
-8 20 -8 33 -1 23 12 33 5 25 -17 -4 -14 -3 -14 5 -3 11 16 36 5 26 -11 -5 -7
-2 -8 5 -4 9 6 9 12 -3 25 -14 15 -13 17 4 17 10 0 16 -4 14 -8 -3 -4 0 -8 6
-8 6 0 9 -4 6 -8 -3 -5 1 -9 9 -9 10 0 12 4 5 12 -7 9 -6 14 4 18 9 4 18 1 22
-5 5 -7 2 -8 -6 -3 -9 5 -11 4 -6 -3 5 -9 15 -8 36 3 21 11 31 12 36 3 5 -7 2
-8 -7 -3 -8 5 -11 4 -6 0 12 -14 48 -14 37 0 -11 14 25 14 37 0 5 -4 2 -5 -6
0 -10 6 -12 4 -7 -4 6 -9 12 -9 25 3 12 11 20 13 28 5 8 -8 17 -8 31 0 23 12
33 6 25 -17 -4 -14 -3 -14 5 -3 11 16 36 5 26 -11 -5 -7 -2 -8 5 -4 9 6 9 12
-3 25 -14 15 -13 17 4 17 10 0 16 -4 14 -8 -3 -4 0 -8 6 -8 6 0 9 -4 6 -8 -3
-5 1 -9 9 -9 10 0 12 4 5 12 -7 9 -6 14 4 18 9 4 18 1 22 -5 5 -7 2 -8 -6 -3
-9 5 -11 4 -6 -3 5 -9 15 -8 36 3 21 11 31 12 36 3 5 -7 2 -8 -7 -3 -8 5 -11
4 -6 0 12 -14 48 -14 37 0 -11 14 25 14 37 0 5 -4 2 -5 -6 0 -9 5 -12 4 -8 -3
8 -12 24 -11 54 6 16 9 22 9 25 0 3 -8 9 -8 25 1 17 8 24 8 29 -1 5 -7 3 -8
-6 -3 -9 5 -11 4 -6 -3 5 -9 15 -8 38 4 16 9 27 11 24 6 -3 -6 1 -13 10 -16 8
-3 13 -10 9 -15 -3 -5 -1 -12 4 -15 10 -7 9 13 -2 30 -11 19 5 25 20 6 14 -16
14 -16 8 2 -6 19 -5 19 14 2 11 -10 18 -23 14 -29 -3 -6 -1 -7 6 -3 8 6 9 12
2 20 -6 7 -8 16 -4 19 3 4 12 -1 20 -11 14 -16 14 -16 9 1 -4 13 -2 16 7 10
18 -11 127 -12 134 -1 3 6 9 5 13 -2 5 -8 13 -9 21 -4 15 9 49 13 49 6 0 -3
-8 -11 -17 -19 -10 -8 -2 -5 19 6 24 15 37 18 40 10 3 -9 9 -9 24 -1 15 8 24
8 31 1 8 -8 18 -7 33 1 15 8 20 8 16 1 -4 -6 -2 -11 4 -11 6 0 8 -5 4 -12 -4
-7 -3 -8 5 -4 6 4 9 11 6 16 -8 13 27 21 41 9 12 -9 12 -15 2 -28 -12 -14 -11
-14 4 -3 10 8 17 17 16 20 -2 21 4 23 18 6 8 -10 13 -14 10 -8 -3 7 1 15 10
18 8 3 12 2 9 -4 -7 -11 104 -8 122 3 6 4 13 2 15 -5 3 -7 9 -8 18 -3 21 13
50 13 51 1 1 -6 2 -19 2 -28 0 -10 3 -15 7 -13 5 3 7 16 5 30 -2 25 -2 25 17
8 11 -10 19 -13 18 -8 -5 23 1 26 18 8 9 -10 13 -13 8 -6 -5 7 -5 13 0 14 51
5 72 4 68 -2 -2 -4 5 -7 16 -6 11 1 19 6 16 12 -2 7 2 12 10 12 7 0 11 -4 8
-9 -3 -4 4 -7 16 -5 12 2 26 10 31 18 5 9 9 10 9 2 0 -6 9 -11 20 -10 11 1 20
6 20 11 0 5 6 2 13 -9 11 -14 16 -15 22 -5 6 9 4 11 -5 5 -9 -5 -11 -4 -6 4 4
6 10 10 14 7 4 -2 16 0 27 4 11 4 29 4 41 0 21 -9 47 1 44 16 -1 5 4 10 12 12
9 2 8 0 -2 -7 -8 -6 -13 -11 -10 -12 3 0 13 -2 22 -4 12 -2 15 2 10 13 -5 15
-4 15 11 3 15 -12 17 -12 12 2 -8 18 11 32 21 16 5 -8 3 -9 -6 -4 -8 5 -11 4
-7 -3 6 -9 15 -9 46 -3 2 1 -3 8 -10 18 -13 15 -12 15 8 5 30 -17 41 -15 17 2
-13 10 -14 14 -4 13 8 -2 20 -6 26 -10 13 -7 24 1 24 17 0 6 -5 4 -10 -4 -5
-8 -10 -10 -10 -4 0 18 13 24 27 12 8 -6 13 -7 11 -2 -2 5 2 11 7 13 6 2 16
12 23 23 7 10 18 16 23 13 5 -4 9 0 9 7 0 10 2 10 9 -1 11 -17 25 4 15 22 -5
8 -2 8 9 -2 15 -12 17 -11 17 10 l0 24 21 -25 c17 -21 19 -22 10 -3 -14 28
-14 34 1 30 7 -1 12 5 13 13 0 8 7 15 15 15 8 0 16 6 16 13 3 26 5 26 20 7
l16 -20 -6 20 c-6 21 5 48 20 45 5 0 10 8 12 20 2 11 8 20 13 20 6 0 8 -4 5
-8 -3 -5 1 -9 9 -9 8 0 12 4 9 9 -3 5 0 17 8 26 12 16 11 16 -7 2 -19 -14 -20
-14 -2 6 9 11 14 25 10 29 -5 5 1 3 11 -5 18 -14 19 -14 7 7 -10 20 -9 22 6
16 10 -3 15 -3 11 2 -4 4 0 14 10 22 9 8 12 12 7 9 -6 -2 -11 4 -11 14 0 14 3
16 13 8 10 -8 12 -7 8 5 -4 8 -1 18 6 23 8 5 10 3 4 -6 -5 -8 -4 -11 2 -7 6 4
10 22 9 41 -1 19 2 32 6 30 5 -3 8 0 8 6 0 6 5 8 10 5 6 -3 10 -1 10 4 0 6 -5
11 -11 11 -6 0 -1 8 12 18 17 15 19 21 9 27 -9 6 -11 4 -5 -5 6 -9 4 -11 -5
-5 -10 6 -10 10 3 20 12 9 14 14 5 23 -9 9 -9 15 1 24 10 11 11 9 5 -7 -8 -21
-6 -20 14 7 10 12 10 18 1 24 -8 5 -9 3 -4 -6 5 -9 4 -11 -3 -6 -17 10 -15 26
2 26 8 0 18 4 21 10 3 5 0 7 -9 4 -12 -4 -14 0 -10 18 3 12 6 29 6 36 1 6 5
12 10 12 4 0 8 5 8 11 0 5 -6 7 -12 3 -8 -5 -7 0 2 11 9 11 10 16 2 11 -7 -4
-12 -1 -12 8 0 9 8 16 18 16 13 0 14 2 3 9 -7 5 -11 13 -7 19 3 6 1 14 -5 18
-9 5 -7 11 6 21 14 9 15 13 4 13 -12 0 -12 2 1 10 13 9 13 10 0 10 -13 0 -13
1 0 10 13 8 12 10 -4 10 -20 0 -20 0 0 15 12 9 15 18 9 22 -16 12 -17 35 -3
45 9 5 9 11 3 16 -11 8 -11 37 0 65 5 11 3 17 -5 17 -9 0 -9 4 1 17 12 15 12
16 -1 8 -12 -7 -13 -6 -3 6 9 11 9 19 2 26 -8 8 -8 17 0 30 7 14 7 24 -2 33
-9 10 -9 11 1 6 6 -4 12 -3 12 3 0 5 -6 11 -12 14 -10 3 -10 7 0 19 9 12 10
18 2 23 -8 5 -6 15 5 32 10 14 12 23 7 19 -6 -3 -13 -2 -16 3 -4 5 -2 13 4 16
8 5 7 12 -2 23 -10 12 -10 14 0 8 6 -4 12 -3 12 3 0 5 -6 11 -12 14 -10 3 -10
7 0 19 9 12 10 18 2 23 -8 5 -6 15 5 32 10 14 12 23 7 19 -18 -11 -23 12 -6
28 13 14 13 16 0 16 -15 0 -17 34 -2 58 4 7 2 12 -5 12 -8 0 -8 4 1 15 7 8 9
15 4 15 -5 0 -2 5 6 10 13 8 13 10 -1 10 -10 0 -15 8 -13 23 1 12 3 28 3 35 1
7 7 10 14 7 6 -4 3 1 -7 9 -15 12 -16 16 -5 16 11 0 12 2 0 9 -9 6 -10 11 -2
15 7 5 8 13 2 25 -6 10 -6 23 -1 31 5 9 4 20 -3 29 -9 12 -9 13 1 7 6 -4 12
-3 12 3 0 5 -6 11 -12 14 -10 3 -10 7 0 19 9 12 10 18 2 23 -8 5 -6 15 5 32
10 14 12 23 7 19 -6 -3 -13 -2 -16 3 -4 5 -2 13 4 16 8 5 7 12 -2 23 -10 12
-10 14 0 8 6 -4 12 -3 12 3 0 5 -6 11 -12 14 -10 3 -10 7 0 19 9 12 10 18 2
23 -8 5 -6 15 5 32 10 14 12 23 7 19 -18 -11 -23 12 -6 28 13 14 13 16 0 16
-15 0 -17 34 -2 58 4 7 2 12 -5 12 -8 0 -8 4 1 15 7 8 9 15 4 15 -5 0 -2 5 6
10 13 8 13 10 -1 10 -10 0 -15 8 -13 23 1 12 3 28 3 35 1 7 7 10 14 7 6 -4 3
1 -7 9 -15 12 -16 16 -5 16 11 0 12 2 0 9 -9 6 -10 11 -2 15 7 5 8 13 2 25 -6
10 -6 23 -1 31 5 9 4 20 -3 29 -9 12 -9 13 1 7 6 -4 12 -3 12 3 0 5 -6 11 -12
14 -10 3 -10 7 0 19 9 12 10 18 2 23 -8 5 -6 15 5 32 10 14 12 23 7 19 -6 -3
-13 -2 -16 3 -4 5 -2 13 4 16 8 5 7 12 -2 23 -10 12 -10 14 0 8 7 -4 12 -1 12
9 0 9 -4 14 -9 10 -5 -3 -13 0 -17 6 -4 7 -3 9 3 6 6 -4 13 0 17 8 3 8 1 17
-5 21 -6 4 -4 15 6 31 10 14 12 23 7 19 -6 -3 -13 -2 -17 4 -3 5 -1 10 5 10 6
0 9 4 6 9 -4 5 0 12 6 14 8 4 7 6 -3 6 -11 1 -16 9 -15 25 0 13 4 22 9 19 4
-2 7 1 7 6 0 6 -5 11 -10 11 -7 0 -7 7 1 21 6 12 7 19 1 15 -6 -4 -8 2 -5 14
3 11 10 17 17 14 6 -3 3 1 -6 9 -20 16 -25 32 -7 21 7 -4 7 1 -1 16 -8 15 -8
20 -1 16 6 -4 11 -2 11 3 0 6 -5 11 -11 11 -8 0 -8 4 -1 13 7 8 7 18 2 27 -5
8 -6 19 -2 24 10 17 10 46 -1 39 -5 -3 -7 5 -5 18 2 17 -1 23 -12 21 -11 -2
-10 1 3 12 12 9 14 16 8 21 -6 3 -9 17 -7 31 3 13 0 24 -5 24 -6 0 -7 4 -4 10
10 17 14 51 6 45 -5 -3 -12 2 -15 11 -8 22 -8 26 4 19 6 -3 7 1 4 9 -3 9 -11
16 -16 16 -6 0 -6 6 1 14 10 12 8 17 -9 26 -16 9 -19 15 -11 23 8 8 6 16 -7
31 -9 11 -11 16 -5 12 9 -5 11 -2 7 8 -3 9 -10 16 -15 16 -4 0 -6 7 -3 15 4 8
1 15 -6 15 -6 0 -8 5 -5 10 3 6 1 10 -5 10 -6 0 -9 4 -5 9 3 6 -5 20 -17 32
-13 12 -17 19 -11 15 9 -5 11 -2 7 8 -3 9 -10 14 -14 11 -4 -3 -11 2 -14 11
-4 10 -2 13 6 8 6 -4 -1 9 -16 29 -16 21 -33 34 -40 30 -7 -4 -6 -1 1 9 15 18
7 29 -15 21 -10 -4 -13 -2 -8 5 4 7 2 12 -4 12 -6 0 -8 5 -5 10 6 9 -8 15 -29
11 -5 -1 -3 5 4 14 7 9 9 15 4 14 -9 -3 -84 39 -84 47 0 2 8 1 18 -2 13 -4 12
-2 -3 7 -11 8 -24 14 -28 14 -4 0 -11 6 -16 13 -5 8 -11 13 -15 13 -20 -3 -26
1 -26 15 0 8 -4 12 -10 9 -5 -3 -10 -1 -10 5 0 6 -4 8 -10 5 -5 -3 -10 -1 -10
6 0 7 -3 9 -7 6 -3 -4 -12 1 -20 11 -8 9 -12 11 -8 4 4 -8 -6 -6 -28 5 -19 10
-33 21 -30 25 2 4 -2 5 -10 2 -8 -3 -18 0 -22 6 -6 9 -10 9 -16 -1 -7 -11 -9
-11 -9 1 0 9 -9 17 -20 18 -44 4 -50 6 -50 16 0 6 -5 4 -10 -4 -5 -8 -10 -10
-10 -4 0 7 -7 15 -16 18 -8 3 -12 2 -9 -4 3 -6 1 -10 -4 -10 -6 0 -11 4 -11 9
0 5 -7 12 -16 15 -15 6 -15 4 -3 -10 13 -16 12 -16 -7 -6 -12 6 -24 8 -28 5
-3 -3 -6 0 -6 8 0 11 -2 11 -10 -1 -7 -12 -10 -12 -10 -1 0 9 -8 11 -26 7 -14
-4 -23 -3 -20 2 7 12 -37 9 -46 -3 -5 -6 -8 -4 -8 5 0 13 -1 13 -10 0 -6 -10
-10 -11 -10 -2 0 6 -7 12 -16 12 -9 0 -13 -5 -9 -12 4 -7 -1 -4 -9 6 -10 13
-16 15 -16 7 0 -10 -3 -11 -13 -2 -8 6 -17 8 -21 4 -10 -10 -46 -11 -46 -1 0
5 -6 6 -12 1 -19 -11 -38 -13 -38 -2 0 5 -11 4 -26 -1 -16 -7 -23 -7 -19 0 4
7 -3 7 -19 0 -17 -6 -26 -6 -26 1 0 6 -7 6 -20 -1 -15 -8 -20 -8 -20 1 0 8 -4
8 -15 -1 -12 -10 -15 -10 -15 0 0 10 -3 10 -15 0 -12 -10 -15 -10 -15 0 0 10
-3 10 -14 1 -11 -9 -15 -9 -19 1 -4 10 -6 10 -6 1 -1 -9 -8 -10 -25 -3 -17 6
-26 5 -30 -3 -3 -9 -7 -8 -14 2 -8 12 -13 12 -25 2 -12 -9 -16 -9 -20 1 -4 10
-6 10 -6 1 -1 -9 -8 -10 -25 -3 -17 6 -26 5 -30 -3 -3 -8 -7 -9 -13 -2 -4 6
-15 10 -23 10 -8 0 -19 -4 -23 -10 -6 -6 -10 -6 -14 2 -3 9 -10 10 -24 3 -13
-7 -19 -7 -19 -1 0 7 -9 7 -25 1 -16 -6 -25 -6 -25 1 0 6 -7 6 -20 -1 -15 -8
-20 -8 -20 1 0 8 -4 8 -15 -1 -12 -10 -15 -10 -15 0 0 10 -3 10 -15 0 -12 -10
-15 -10 -15 0 0 10 -3 10 -14 1 -11 -9 -15 -9 -19 1 -4 10 -6 10 -6 1 -1 -9
-8 -10 -25 -3 -17 6 -26 5 -30 -3 -3 -9 -7 -8 -14 2 -8 12 -13 12 -25 2 -12
-9 -16 -9 -20 1 -4 10 -6 10 -6 1 -1 -9 -8 -10 -25 -3 -17 6 -26 5 -30 -3 -3
-8 -7 -9 -13 -2 -10 12 -36 13 -44 2 -3 -4 -17 -3 -32 2 -18 7 -27 7 -31 -2
-3 -9 -7 -8 -14 2 -8 12 -13 12 -25 2 -12 -9 -16 -9 -20 1 -3 7 -6 8 -6 2 -1
-10 -63 -10 -80 1 -5 3 -11 -1 -14 -7 -3 -9 -10 -7 -22 7 -9 11 -14 15 -11 9
8 -16 -36 -26 -46 -11 -6 9 -8 8 -8 -3 0 -13 -1 -13 -10 0 -6 10 -10 11 -10 3
0 -9 -7 -10 -24 -3 -17 6 -26 5 -30 -3 -3 -9 -7 -8 -14 2 -8 12 -13 12 -25 2
-12 -9 -16 -9 -20 1 -3 7 -6 8 -6 2 -1 -10 -63 -10 -80 1 -5 3 -11 -1 -14 -7
-3 -9 -10 -7 -22 7 -9 11 -14 15 -11 9 8 -16 -36 -26 -46 -11 -6 9 -8 8 -8 -3
0 -12 -2 -13 -9 -1 -7 11 -9 11 -14 0 -5 -12 -6 -12 -6 0 -1 11 -4 11 -16 1
-12 -10 -15 -10 -15 0 0 10 -3 10 -14 1 -11 -9 -15 -9 -19 1 -4 10 -6 10 -6 1
-1 -9 -8 -10 -25 -3 -17 6 -26 5 -30 -3 -3 -9 -7 -8 -14 2 -9 12 -13 12 -26 2
-13 -11 -16 -11 -16 0 0 12 -2 12 -9 0 -6 -9 -11 -10 -15 -2 -5 8 -13 8 -27 0
-17 -8 -24 -7 -36 8 -8 10 -12 12 -8 6z m-645 -4007 c0 -2 -7 -7 -16 -10 -8
-3 -12 -2 -9 4 6 10 25 14 25 6z"/>
<path d="M498 1333 c7 -3 16 -2 19 1 4 3 -2 6 -13 5 -11 0 -14 -3 -6 -6z"/>
<path d="M829 663 c-13 -16 -12 -17 4 -4 9 7 17 15 17 17 0 8 -8 3 -21 -13z"/>
<path d="M4196 642 c-3 -5 1 -9 9 -9 8 0 12 4 9 9 -3 4 -7 8 -9 8 -2 0 -6 -4
-9 -8z"/>
<path d="M1009 563 c-13 -16 -12 -17 4 -4 16 13 21 21 13 21 -2 0 -10 -8 -17
-17z"/>
<path d="M4027 519 c7 -7 15 -10 18 -7 3 3 -2 9 -12 12 -14 6 -15 5 -6 -5z"/>
<path d="M3795 500 c-3 -5 -1 -10 4 -10 6 0 11 5 11 10 0 6 -2 10 -4 10 -3 0
-8 -4 -11 -10z"/>
<path d="M1290 497 c0 -2 6 -10 14 -16 11 -9 16 -9 22 1 4 7 4 10 -1 6 -4 -4
-14 -3 -22 3 -7 6 -13 9 -13 6z"/>
<path d="M1930 496 c0 -2 8 -10 18 -17 15 -13 16 -12 3 4 -13 16 -21 21 -21
13z"/>
<path d="M2250 496 c0 -2 8 -10 18 -17 15 -13 16 -12 3 4 -13 16 -21 21 -21
13z"/>
<path d="M3005 489 c-4 -6 -5 -12 -2 -15 2 -3 7 2 10 11 7 17 1 20 -8 4z"/>
<path d="M3130 496 c0 -2 8 -10 18 -17 15 -13 16 -12 3 4 -13 16 -21 21 -21
13z"/>
<path d="M3235 490 c3 -5 8 -10 11 -10 2 0 4 5 4 10 0 6 -5 10 -11 10 -5 0 -7
-4 -4 -10z"/>
<path d="M3485 489 c-4 -6 -5 -12 -2 -15 2 -3 7 2 10 11 7 17 1 20 -8 4z"/>
<path d="M3620 496 c0 -2 8 -10 18 -17 15 -13 16 -12 3 4 -13 16 -21 21 -21
13z"/>
<path d="M1636 473 c-6 -14 -5 -15 5 -6 7 7 10 15 7 18 -3 3 -9 -2 -12 -12z"/>
<path d="M1666 482 c-3 -5 1 -9 9 -9 8 0 12 4 9 9 -3 4 -7 8 -9 8 -2 0 -6 -4
-9 -8z"/>
<path d="M1733 475 c0 -8 4 -12 9 -9 5 3 6 10 3 15 -9 13 -12 11 -12 -6z"/>
<path d="M1974 476 c1 -8 5 -18 8 -22 4 -3 5 1 4 10 -1 8 -5 18 -8 22 -4 3 -5
-1 -4 -10z"/>
<path d="M2133 475 c0 -8 4 -12 9 -9 5 3 6 10 3 15 -9 13 -12 11 -12 -6z"/>
<path d="M2294 476 c1 -8 5 -18 8 -22 4 -3 5 1 4 10 -1 8 -5 18 -8 22 -4 3 -5
-1 -4 -10z"/>
<path d="M2453 475 c0 -8 4 -12 9 -9 5 3 6 10 3 15 -9 13 -12 11 -12 -6z"/>
<path d="M2593 475 c0 -8 4 -12 9 -9 4 3 8 9 8 15 0 5 -4 9 -8 9 -5 0 -9 -7
-9 -15z"/>
<path d="M2626 482 c-3 -5 1 -9 9 -9 8 0 12 4 9 9 -3 4 -7 8 -9 8 -2 0 -6 -4
-9 -8z"/>
<path d="M2693 475 c0 -8 4 -12 9 -9 5 3 6 10 3 15 -9 13 -12 11 -12 -6z"/>
<path d="M2856 473 c-6 -14 -5 -15 5 -6 7 7 10 15 7 18 -3 3 -9 -2 -12 -12z"/>
<path d="M2920 480 c-9 -6 -10 -10 -3 -10 6 0 15 5 18 10 8 12 4 12 -15 0z"/>
<path d="M2960 480 c-12 -7 -10 -9 7 -7 12 0 19 5 17 9 -6 10 -6 10 -24 -2z"/>
<path d="M3066 482 c-2 -4 4 -8 14 -8 10 0 16 4 14 8 -3 4 -9 8 -14 8 -5 0
-11 -4 -14 -8z"/>
<path d="M3110 481 c0 -6 4 -13 10 -16 6 -3 7 1 4 9 -7 18 -14 21 -14 7z"/>
<path d="M3406 482 c-3 -5 1 -9 9 -9 8 0 12 4 9 9 -3 4 -7 8 -9 8 -2 0 -6 -4
-9 -8z"/>
<path d="M3446 482 c-3 -5 1 -9 9 -9 8 0 12 4 9 9 -3 4 -7 8 -9 8 -2 0 -6 -4
-9 -8z"/>
<path d="M1546 458 c3 -5 10 -6 15 -3 13 9 11 12 -6 12 -8 0 -12 -4 -9 -9z"/>
<path d="M1670 439 c0 -5 5 -7 10 -4 6 3 10 8 10 11 0 2 -4 4 -10 4 -5 0 -10
-5 -10 -11z"/>
<path d="M2070 439 c0 -5 5 -7 10 -4 6 3 10 8 10 11 0 2 -4 4 -10 4 -5 0 -10
-5 -10 -11z"/>
<path d="M2390 439 c0 -5 5 -7 10 -4 6 3 10 8 10 11 0 2 -4 4 -10 4 -5 0 -10
-5 -10 -11z"/>
</g>
</svg>
